<?xml version="1.0" encoding="UTF-8"?>
<svg width="442px" height="442px" viewBox="0 0 442 442" version="1.1" xmlns="http://www.w3.org/2000/svg" xmlns:xlink="http://www.w3.org/1999/xlink">
    <!-- Generator: Sketch 42 (36781) - http://www.bohemiancoding.com/sketch -->
    <title>empty-box-open</title>
    <desc>Created with Sketch.</desc>
    <defs></defs>
    <g id="Page-1" stroke="none" stroke-width="1" fill="none" fill-rule="evenodd">
        <g id="empty-box-open" transform="translate(-1.000000, 0.000000)" fill-rule="nonzero" fill="#D6D6D6">
            <path d="M443,268.474 L443,109.081 C443.004,108.61 442.964,108.136 442.9,107.662 C442.888,107.571 442.875,107.48 442.86,107.39 C442.788,106.955 442.697,106.522 442.566,106.091 C442.563,106.082 442.559,106.073 442.556,106.064 C442.46,105.753 442.35,105.445 442.222,105.139 C442.185,105.051 442.139,104.971 442.1,104.884 C442.051,104.776 441.999,104.67 441.946,104.563 C441.776,104.22 441.591,103.889 441.387,103.574 C441.359,103.53 441.335,103.485 441.306,103.442 C441.059,103.073 440.788,102.728 440.5,102.401 C440.446,102.34 440.39,102.283 440.335,102.223 C440.068,101.934 439.787,101.662 439.491,101.41 C439.444,101.369 439.4,101.327 439.352,101.287 C439.017,101.012 438.664,100.763 438.299,100.535 C438.214,100.482 438.127,100.433 438.04,100.383 C437.701,100.185 437.352,100.005 436.993,99.848 C436.951,99.83 436.914,99.804 436.871,99.786 L200.894,0.777 C200.872,0.768 200.85,0.762 200.828,0.753 C200.736,0.715 200.64,0.686 200.546,0.651 C199.099,0.106 197.602,-0.089 196.15,0.04 C196.122,0.042 196.095,0.041 196.067,0.044 C195.406,0.108 194.756,0.237 194.125,0.428 C194.087,0.44 194.049,0.456 194.011,0.469 C193.735,0.556 193.461,0.653 193.194,0.763 C193.182,0.768 193.169,0.771 193.156,0.777 L123.936,29.819 C120.222,31.378 117.805,35.012 117.805,39.041 C117.805,43.07 120.222,46.704 123.936,48.263 L187.025,74.734 L187.025,162.89 L7.131,238.367 C7.005,238.42 6.889,238.485 6.767,238.542 C6.648,238.598 6.529,238.652 6.412,238.713 C6.128,238.859 5.855,239.018 5.591,239.188 C5.549,239.215 5.505,239.234 5.463,239.262 C5.453,239.269 5.445,239.277 5.435,239.283 C5.103,239.505 4.788,239.744 4.49,240 C4.459,240.026 4.432,240.055 4.402,240.082 C4.147,240.307 3.905,240.543 3.676,240.79 C3.608,240.863 3.544,240.938 3.478,241.013 C3.291,241.227 3.114,241.449 2.947,241.677 C2.884,241.762 2.821,241.846 2.761,241.933 C2.581,242.196 2.415,242.466 2.261,242.743 C2.233,242.794 2.2,242.842 2.173,242.893 C1.999,243.22 1.846,243.558 1.709,243.901 C1.672,243.994 1.643,244.089 1.609,244.184 C1.515,244.444 1.43,244.706 1.357,244.973 C1.326,245.089 1.297,245.204 1.27,245.321 C1.206,245.595 1.154,245.872 1.113,246.152 C1.099,246.245 1.082,246.338 1.071,246.432 C1.025,246.825 0.998,247.22 0.999,247.619 L0.999,332.991 C0.999,337.019 3.416,340.654 7.13,342.213 L243.046,441.197 C243.669,441.464 244.324,441.668 245.004,441.804 C245.067,441.817 245.131,441.822 245.194,441.833 C245.453,441.88 245.712,441.924 245.978,441.95 C246.309,441.983 246.642,442 246.975,442 C247.308,442 247.64,441.983 247.972,441.95 C248.237,441.924 248.497,441.88 248.756,441.833 C248.819,441.822 248.883,441.817 248.946,441.804 C249.626,441.668 250.282,441.464 250.904,441.197 L436.869,363.172 C440.583,361.613 443,357.979 443,353.95 L443,268.579 L443,268.474 Z M331.228,300.403 L268.077,273.907 C262.982,271.763 257.123,274.166 254.987,279.259 C252.851,284.352 255.246,290.212 260.339,292.35 L305.382,311.248 L246.977,335.753 L138.62,290.29 L197.024,265.785 L232.548,280.69 C237.642,282.827 243.502,280.43 245.638,275.337 C247.775,270.244 245.379,264.384 240.286,262.246 L207.024,248.29 L207.024,184.58 L407.152,268.548 L331.228,300.403 Z M187.024,248.291 L112.772,279.445 L36.848,247.589 L187.024,184.58 L187.024,248.291 Z M197.024,20.843 L407.153,109.007 L363.78,127.206 L200.959,58.89 C200.929,58.877 200.898,58.865 200.867,58.852 L153.651,39.041 L197.024,20.843 Z M359.838,147.241 C361.094,147.78 362.436,148.051 363.78,148.051 C365.094,148.051 366.409,147.792 367.649,147.273 L423,124.048 L423,253.506 L207.024,162.889 L207.024,83.125 L359.838,147.241 Z M21,262.629 L236.976,353.247 L236.976,416.958 L21,326.341 L21,262.629 Z M423,347.3 L256.976,416.958 L256.976,353.247 L423,283.588 L423,347.3 Z" id="Shape"></path>
        </g>
    </g>
</svg>