<?xml version="1.0" encoding="UTF-8"?>
<svg width="118px" height="100px" viewBox="0 0 118 100" version="1.1" xmlns="http://www.w3.org/2000/svg" xmlns:xlink="http://www.w3.org/1999/xlink">
    <!-- Generator: Sketch 42 (36781) - http://www.bohemiancoding.com/sketch -->
    <title>Group 3</title>
    <desc>Created with Sketch.</desc>
    <defs></defs>
    <g id="Page-1" stroke="none" stroke-width="1" fill="none" fill-rule="evenodd">
        <g id="Group-3" fill-rule="nonzero">
            <g id="003-github-character" fill="#FFFFFF">
                <g id="Group">
                    <path d="M108.144521,27.4818859 C109.418723,23.6550868 110.056567,19.6880893 110.056567,15.5794045 C110.056567,10.1004963 108.852025,4.95210918 106.446164,0.134739454 C101.398441,0.134739454 96.939479,1.05657568 93.0692773,2.89801489 C89.2010588,4.73995037 84.7894454,7.59727047 79.8366681,11.4699752 C73.6089454,9.95880893 67.0011933,9.20322581 60.0193613,9.20322581 C52.374895,9.20322581 45.0846765,10.030273 38.1489538,11.6831266 C33.1007353,7.71538462 28.6417731,4.79975186 24.772563,2.9337469 C20.9033529,1.06774194 16.4210882,0.134987593 11.3247773,0.134987593 C8.91842017,4.95235732 7.71536555,10.1009926 7.71536555,15.5796526 C7.71536555,19.7362283 8.35197059,23.7508685 9.62617227,27.6230769 C3.20831092,35.1332506 0,44.4843672 0,55.6781638 C0,65.5032258 1.46210924,73.3188586 4.38806303,79.1290323 C5.94561345,82.1977667 7.97392437,84.9136476 10.474979,87.2759305 C12.975042,89.6367246 15.8298487,91.5508685 19.0386555,93.0153846 C22.247958,94.4784119 25.4793235,95.6955335 28.735479,96.6627792 C31.9913866,97.6305211 35.5888992,98.3397022 39.5290084,98.7866005 C43.4688697,99.2372208 46.9486303,99.5320099 49.9682899,99.6746898 C52.9879496,99.8146402 56.337563,99.8863524 60.0191134,99.8863524 C64.3593319,99.8863524 68.2979538,99.7791563 71.8384496,99.5679901 C75.3777059,99.3558313 79.4226765,98.8352357 83.976584,98.01067 C88.5297479,97.1836228 92.5407563,96.0610422 96.0096092,94.644665 C99.4777185,93.2282878 102.805021,91.1967742 105.989782,88.5526055 C109.174542,85.9066998 111.662706,82.7665012 113.456752,79.1292804 C116.333374,73.2724566 117.773172,65.4550868 117.773172,55.6784119 C117.771437,44.4372208 114.562878,35.0387097 108.144521,27.4818859 Z M99.6542227,79.0210918 C98.144021,82.1156328 96.2327185,84.5459057 93.9210588,86.3188586 C91.6084076,88.0903226 88.7305462,89.5066998 85.2864832,90.5707196 C81.8406849,91.6330025 78.5394118,92.3292804 75.3777059,92.6588089 C72.2150084,92.9898263 68.7010378,93.1545906 64.8308361,93.1545906 L52.940105,93.1545906 C49.0711429,93.1545906 45.5551891,92.9898263 42.3942269,92.6588089 C39.2330168,92.3292804 35.9302563,91.6330025 32.4854496,90.5707196 C29.0418824,89.5066998 26.164021,88.0903226 23.8513697,86.3188586 C21.5387185,84.5456576 19.6279118,82.1156328 18.117958,79.0210918 C16.6082521,75.9265509 15.8531513,72.3024814 15.8531513,68.1466501 C15.8531513,62.4774194 17.481105,57.6593052 20.7372605,53.6937965 C23.9931681,49.7260546 28.4045336,47.742928 33.9718529,47.742928 C36.0016513,47.742928 40.6021639,48.2384615 47.7741345,49.2305211 C51.1239958,49.7498759 54.8283529,50.0096774 58.8857185,50.0096774 C62.9443235,50.0096774 66.6481849,49.7506203 69.9975504,49.2305211 C77.2652101,48.2382134 81.8642353,47.742928 83.8000798,47.742928 C89.3671513,47.742928 93.7785168,49.7270471 97.0344244,53.6937965 C100.29058,57.6610422 101.917542,62.4774194 101.917542,68.1466501 C101.917542,72.3032258 101.162441,75.9292804 99.6542227,79.0210918 Z" id="Shape"></path>
                </g>
            </g>
            <g id="Group-2" transform="translate(28.000000, 55.000000)">
                <g id="001-favorite">
                    <g id="Group" transform="translate(0.000000, 0.034692)">
                        <polygon id="Shape" fill="#FFE63C" points="11.9735745 0.526636111 15.9820851 7.09441389 23.4629362 8.85774722 18.4586809 14.7099694 19.0714468 22.3766361 11.9735745 19.4121917 4.90123404 22.3766361 5.514 14.7099694 0.509744681 8.85774722 7.99059574 7.09441389"></polygon>
                        <polygon id="Shape" fill="#FDD72E" points="14.2714468 11.8221917 11.9735745 1.54885833 15.9820851 7.09441389 23.4629362 8.85774722 18.4586809 14.7099694 19.0714468 22.3766361 11.9735745 19.4121917"></polygon>
                        <path d="M19.0714468,22.8877472 C18.9948511,22.8877472 18.9437872,22.8621917 18.8671915,22.8366361 L11.9735745,19.9488583 L5.10548936,22.8366361 C4.95229787,22.9133028 4.74804255,22.8877472 4.62038298,22.785525 C4.46719149,22.6833028 4.39059574,22.5044139 4.41612766,22.325525 L5.0033617,14.8633028 L0.126765957,9.18996944 C-0.000893617021,9.06219167 -0.0264255319,8.85774722 0.0246382979,8.70441389 C0.0757021277,8.525525 0.228893617,8.39774722 0.382085106,8.37219167 L7.65868085,6.63441389 L11.5395319,0.271080556 C11.6416596,0.117747222 11.7948511,0.015525 11.9735745,0.015525 L11.9735745,0.015525 C12.1522979,0.015525 12.3054894,0.117747222 12.407617,0.271080556 L16.314,6.65996944 L23.5905957,8.37219167 C23.7693191,8.42330278 23.8969787,8.55108056 23.9480426,8.70441389 C23.9991064,8.88330278 23.9735745,9.06219167 23.8459149,9.18996944 L18.9948511,14.8888583 L19.5820851,22.3510806 C19.607617,22.5299694 19.5054894,22.7088583 19.3778298,22.8110806 C19.2757021,22.8621917 19.1735745,22.8877472 19.0714468,22.8877472 Z M11.9735745,18.9010806 C12.0501702,18.9010806 12.101234,18.9266361 12.1778298,18.9521917 L18.5097447,21.5844139 L17.9735745,14.7610806 C17.9735745,14.6333028 17.9991064,14.4799694 18.101234,14.3777472 L22.5693191,9.16441389 L15.9054894,7.605525 C15.7778298,7.57996944 15.6501702,7.50330278 15.5991064,7.375525 L12.0246383,1.52330278 L8.4246383,7.34996944 C8.34804255,7.47774722 8.24591489,7.55441389 8.0927234,7.57996944 L1.45442553,9.16441389 L5.92251064,14.3777472 C5.99910638,14.4799694 6.05017021,14.6077472 6.05017021,14.7610806 L5.514,21.5844139 L11.820383,18.9521917 C11.8459149,18.9266361 11.8969787,18.9010806 11.9735745,18.9010806 Z" id="Shape" fill="#C39314"></path>
                        <g transform="translate(4.595745, 10.350000)" id="Shape" fill="#C39215">
                            <path d="M1.07144681,1.625525 C0.918255319,1.625525 0.790595745,1.57441389 0.688468085,1.44663611 L0.177829787,0.833302778 C-0.000893617021,0.628858333 0.0246382979,0.296636111 0.254425532,0.117747222 C0.484212766,-0.0611416667 0.790595745,-0.0355861111 0.969319149,0.194413889 L1.47995745,0.807747222 C1.65868085,1.01219167 1.63314894,1.34441389 1.4033617,1.52330278 C1.30123404,1.57441389 1.19910638,1.625525 1.07144681,1.625525 Z"></path>
                            <path d="M2.96080851,7.29885833 L2.90974468,7.29885833 C2.62889362,7.27330278 2.4246383,7.01774722 2.45017021,6.73663611 L2.57782979,5.12663611 C2.65442553,4.25774722 2.34804255,3.38885833 1.78634043,2.67330278 L1.63314894,2.49441389 C1.45442553,2.28996944 1.47995745,1.95774722 1.68421277,1.77885833 C1.88846809,1.59996944 2.22038298,1.625525 2.39910638,1.82996944 L2.55229787,2.00885833 C3.31825532,2.90330278 3.67570213,4.05330278 3.59910638,5.20330278 L3.47144681,6.81330278 C3.44591489,7.09441389 3.21612766,7.29885833 2.96080851,7.29885833 Z"></path>
                        </g>
                    </g>
                </g>
                <g id="001-favorite" transform="translate(38.000000, 0.000000)">
                    <g id="Group" transform="translate(0.000000, 0.034692)">
                        <polygon id="Shape" fill="#FFE63C" points="11.9735745 0.526636111 15.9820851 7.09441389 23.4629362 8.85774722 18.4586809 14.7099694 19.0714468 22.3766361 11.9735745 19.4121917 4.90123404 22.3766361 5.514 14.7099694 0.509744681 8.85774722 7.99059574 7.09441389"></polygon>
                        <polygon id="Shape" fill="#FDD72E" points="14.2714468 11.8221917 11.9735745 1.54885833 15.9820851 7.09441389 23.4629362 8.85774722 18.4586809 14.7099694 19.0714468 22.3766361 11.9735745 19.4121917"></polygon>
                        <path d="M19.0714468,22.8877472 C18.9948511,22.8877472 18.9437872,22.8621917 18.8671915,22.8366361 L11.9735745,19.9488583 L5.10548936,22.8366361 C4.95229787,22.9133028 4.74804255,22.8877472 4.62038298,22.785525 C4.46719149,22.6833028 4.39059574,22.5044139 4.41612766,22.325525 L5.0033617,14.8633028 L0.126765957,9.18996944 C-0.000893617021,9.06219167 -0.0264255319,8.85774722 0.0246382979,8.70441389 C0.0757021277,8.525525 0.228893617,8.39774722 0.382085106,8.37219167 L7.65868085,6.63441389 L11.5395319,0.271080556 C11.6416596,0.117747222 11.7948511,0.015525 11.9735745,0.015525 L11.9735745,0.015525 C12.1522979,0.015525 12.3054894,0.117747222 12.407617,0.271080556 L16.314,6.65996944 L23.5905957,8.37219167 C23.7693191,8.42330278 23.8969787,8.55108056 23.9480426,8.70441389 C23.9991064,8.88330278 23.9735745,9.06219167 23.8459149,9.18996944 L18.9948511,14.8888583 L19.5820851,22.3510806 C19.607617,22.5299694 19.5054894,22.7088583 19.3778298,22.8110806 C19.2757021,22.8621917 19.1735745,22.8877472 19.0714468,22.8877472 Z M11.9735745,18.9010806 C12.0501702,18.9010806 12.101234,18.9266361 12.1778298,18.9521917 L18.5097447,21.5844139 L17.9735745,14.7610806 C17.9735745,14.6333028 17.9991064,14.4799694 18.101234,14.3777472 L22.5693191,9.16441389 L15.9054894,7.605525 C15.7778298,7.57996944 15.6501702,7.50330278 15.5991064,7.375525 L12.0246383,1.52330278 L8.4246383,7.34996944 C8.34804255,7.47774722 8.24591489,7.55441389 8.0927234,7.57996944 L1.45442553,9.16441389 L5.92251064,14.3777472 C5.99910638,14.4799694 6.05017021,14.6077472 6.05017021,14.7610806 L5.514,21.5844139 L11.820383,18.9521917 C11.8459149,18.9266361 11.8969787,18.9010806 11.9735745,18.9010806 Z" id="Shape" fill="#C39314"></path>
                        <g transform="translate(4.595745, 10.350000)" id="Shape" fill="#C39215">
                            <path d="M1.07144681,1.625525 C0.918255319,1.625525 0.790595745,1.57441389 0.688468085,1.44663611 L0.177829787,0.833302778 C-0.000893617021,0.628858333 0.0246382979,0.296636111 0.254425532,0.117747222 C0.484212766,-0.0611416667 0.790595745,-0.0355861111 0.969319149,0.194413889 L1.47995745,0.807747222 C1.65868085,1.01219167 1.63314894,1.34441389 1.4033617,1.52330278 C1.30123404,1.57441389 1.19910638,1.625525 1.07144681,1.625525 Z"></path>
                            <path d="M2.96080851,7.29885833 L2.90974468,7.29885833 C2.62889362,7.27330278 2.4246383,7.01774722 2.45017021,6.73663611 L2.57782979,5.12663611 C2.65442553,4.25774722 2.34804255,3.38885833 1.78634043,2.67330278 L1.63314894,2.49441389 C1.45442553,2.28996944 1.47995745,1.95774722 1.68421277,1.77885833 C1.88846809,1.59996944 2.22038298,1.625525 2.39910638,1.82996944 L2.55229787,2.00885833 C3.31825532,2.90330278 3.67570213,4.05330278 3.59910638,5.20330278 L3.47144681,6.81330278 C3.44591489,7.09441389 3.21612766,7.29885833 2.96080851,7.29885833 Z"></path>
                        </g>
                    </g>
                </g>
            </g>
        </g>
    </g>
</svg>